<svg width="79" height="79" xmlns="http://www.w3.org/2000/svg" xmlns:xlink="http://www.w3.org/1999/xlink"><defs><radialGradient cx="32.502%" cy="72.421%" fx="32.502%" fy="72.421%" r="108.734%" gradientTransform="matrix(.64548 -.7522 .73035 .65312 -.414 .496)" id="c"><stop stop-color="#50E3C2" offset="0%"/><stop stop-color="#51BED3" offset="51.636%"/><stop stop-color="#525BFF" offset="100%"/></radialGradient><filter x="-52%" y="-53.1%" width="195.9%" height="197.9%" filterUnits="objectBoundingBox" id="a"><feOffset dx="-2" dy="-2" in="SourceAlpha" result="shadowOffsetOuter1"/><feGaussianBlur stdDeviation="7.5" in="shadowOffsetOuter1" result="shadowBlurOuter1"/><feColorMatrix values="0 0 0 0 0.314369351 0 0 0 0 0.839548783 0 0 0 0 0.8883757 0 0 0 0.35546875 0" in="shadowBlurOuter1"/></filter><rect id="b" x="0" y=".5" width="49" height="48" rx="24"/></defs><g fill="none" fill-rule="evenodd"><g transform="rotate(-180 31 31)"><use fill="#000" filter="url(#a)" xlink:href="#b"/><use fill="url(#c)" xlink:href="#b"/></g><path d="M28.89 44.914c1.508 0 2.773-.243 3.796-.728 1.023-.486 1.785-1.135 2.285-1.95.5-.813.75-1.705.75-2.676 0-1.493-.526-2.688-1.579-3.584-1.052-.896-2.676-1.344-4.872-1.344h-1.052l.201-2.285h6.317V28.92h-9.99l-.784 9.162h4.256c1.135 0 1.926.134 2.374.403.448.269.672.664.672 1.187s-.228.93-.683 1.22c-.456.292-1.064.438-1.826.438-.761 0-1.52-.112-2.273-.336a7.624 7.624 0 01-2.072-.964l-1.59 3.338c.776.493 1.705.874 2.788 1.142a13.57 13.57 0 003.282.404zm16.755 0c1.165 0 2.33-.172 3.494-.516 1.165-.343 2.195-.836 3.091-1.478v-6.496h-3.92v4.3a5.666 5.666 0 01-2.396.516c-.867 0-1.636-.19-2.308-.571a4.016 4.016 0 01-1.568-1.59c-.373-.68-.56-1.453-.56-2.319 0-1.359.411-2.445 1.232-3.26.822-.813 1.904-1.22 3.248-1.22 1.479 0 2.748.582 3.808 1.747l2.823-2.553c-.777-.926-1.747-1.636-2.912-2.128-1.165-.493-2.48-.74-3.943-.74-1.672 0-3.173.348-4.502 1.042-1.33.694-2.367 1.661-3.114 2.9-.746 1.24-1.12 2.644-1.12 4.212 0 1.568.374 2.972 1.12 4.211.747 1.24 1.777 2.207 3.092 2.901 1.314.694 2.792 1.042 4.435 1.042z" fill="#FFF" fill-rule="nonzero"/></g></svg>