<svg xmlns="http://www.w3.org/2000/svg" viewBox="0 0 282 263"><defs><linearGradient id="a" x1="4.2%" x2="154.2%" y1="51.1%" y2="55.9%"><stop offset="0%" stop-color="#FE559C"/><stop offset="31%" stop-color="#D957AF"/><stop offset="58.1%" stop-color="#B858C1"/><stop offset="100%" stop-color="#415EFF"/><stop offset="100%" stop-color="#415EFF"/></linearGradient><linearGradient id="b" x1="131.7%" x2="41%" y1="53.7%" y2="53.7%"><stop offset="0%" stop-color="#CB45FE"/><stop offset="100%" stop-color="#415EFF"/><stop offset="100%" stop-color="#415EFF"/></linearGradient></defs><g fill="none" fill-rule="evenodd"><path fill="#FE6A55" d="M82.8 142.7l178.7 61.6A30 30 0 01242 261L96 210.8l28.7-6.6-9.2-40-51.7 12 6 25.5-6.6-2.2a30 30 0 0119.5-56.8zm31.4 25.4l8 34.3-30.2 7-19.7-6.8-5.5-23.6 28.8 16.7 18.6-27.6zm-2.2-.7l-17 25.3-26.5-15.3 43.5-10z"/><path fill="url(#a)" d="M61.8 72.5l10 3.5V116h52v-22l116.7 40.2a30 30 0 01-19.6 56.7L42.2 129.3a30 30 0 0119.6-56.8zM74 78.3L98 101.1l12.4-11.8 11.4 3.9v20.4H74V78.3zm2.5-.7L108 88.4 98 98 76.5 77.6z"/><path fill="url(#b)" d="M39.8 1.6l178.7 61.6a30 30 0 11-19.6 56.7l-75-25.8V74.9h-52v1.3L20.2 58.4A30 30 0 1139.8 1.6zm82 76.7v15l-11.6-4 11.5-11zm-2-1.1l-12 11.3-31-10.7-.8-.6h43.7z"/></g></svg>