<svg xmlns="http://www.w3.org/2000/svg" width="35" height="28"><defs><linearGradient id="a" x1="90.3%" x2="50%" y1="0%" y2="100%"><stop offset="0%" stop-color="#CB45FE"/><stop offset="100%" stop-color="#415EFF"/><stop offset="100%" stop-color="#415EFF"/></linearGradient></defs><g fill="url(#a)" fill-rule="nonzero" transform="translate(-491 -2255)"><path d="M495.7 2256.7a11 11 0 00-4.2 8.1v2.2c0 1.4.2 2.8.7 4.3 1.3 4.2 4 8 8.4 11.2.5.4 1.2-.3.8-.8l-.2-.4-.3-.4v-.1l-1.3-2.3a16.6 16.6 0 01-1.8-6.8v-.3-.7l.1-.3h.1c2.3 0 4.8-.6 6.4-1.7a7.4 7.4 0 002-10.2c-2.3-3.3-7.4-4-10.7-1.8zm9.6 2.5c2 2.8 1.2 6.6-1.6 8.5-1.5 1-4 1.7-6.3 1.5-.3 0-.6.2-.6.5v.1l-.2 2v.4c.1 2.2.8 4.5 2 6.8l.2.5-.2-.2a19 19 0 01-6-12.4v-2a10 10 0 013.7-7.2c2.8-1.9 7-1.3 8.9 1.3l.1.2zM513.7 2256.7a11 11 0 00-4.2 8.1v2.2c0 1.4.2 2.8.7 4.3 1.3 4.2 4 8 8.4 11.2.5.4 1.2-.3.8-.8l-.2-.4-.3-.4v-.1l-1.3-2.3a16.6 16.6 0 01-1.8-6.8v-.3-.7l.1-.3h.1c2.3 0 4.8-.6 6.4-1.7a7.4 7.4 0 002-10.2c-2.3-3.3-7.4-4-10.7-1.8zm9.6 2.5c2 2.8 1.2 6.6-1.6 8.5-1.5 1-4 1.7-6.3 1.5-.3 0-.6.2-.6.5v.1l-.2 2v.4c.1 2.2.8 4.5 2 6.8l.2.5-.2-.2a19 19 0 01-6-12.4v-2a10 10 0 013.7-7.2c2.8-1.9 7-1.3 8.9 1.3l.1.2z"/></g></svg>