<svg xmlns="http://www.w3.org/2000/svg" fill-rule="evenodd" clip-rule="evenodd" viewBox="0 0 1024 1024"><defs/><g fill-rule="nonzero"><path fill="url(#_Linear1)" d="M259.3 403.3V514a47.7 47.7 0 0051.3-16.3 44.6 44.6 0 00-9-63.6l-42.3-30.8zM9.4 278.3a44.6 44.6 0 009 63.6l155.9 113.5v-114L75 269a47.7 47.7 0 00-65.7 9.2z"/><path fill="url(#_Linear2)" d="M259.3 586.9v105a45.8 45.8 0 0035.4-18.6 48 48 0 00-9.4-66.3l-26-20.1zm-185.4-85l-.6.8a48 48 0 009.4 66.3l91.6 70.7V521.3l-36-27.7a45.9 45.9 0 00-64.4 8.3z"/></g><path fill="none" stroke="#fff" stroke-width="22.4" d="M752.2 380.8v98.6h28.6a13 13 0 0013-13v-72.6a13 13 0 00-13-13h-28.6z"/><path fill="#fff" fill-rule="nonzero" d="M567 321.2a72.6 72.6 0 110 145.2 72.6 72.6 0 010-145.2zm0 24.2a48.4 48.4 0 100 96.8 48.4 48.4 0 000-96.8z"/><path fill="#fff" fill-rule="nonzero" d="M313 236.6h338.6c60.2 0 109 48.7 109 108.8v338.7c0 60.2-48.8 108.9-109 108.9H313A108.9 108.9 0 01204 684V345.4c0-60 48.7-108.8 108.9-108.8zm0 24.2c-46.8 0-84.7 37.9-84.7 84.6v338.7c0 46.8 37.9 84.7 84.7 84.7h338.6c46.8 0 84.7-38 84.7-84.7V345.4c0-46.7-37.9-84.6-84.7-84.6H313z"/><path fill="#fff" fill-rule="nonzero" d="M592.9 188.2l36.3 60.8a12.1 12.1 0 1020.7-12.4l-39.8-66.7a12.1 12.1 0 00-10.4-5.9H374.5c-4.4 0-8.4 2.4-10.6 6.2l-37.3 66.7a12.1 12.1 0 1021.1 11.8l33.9-60.5h211.3zM592.9 835.5l36.3-60.8a12 12 0 1120.7 12.4l-39.8 66.7a12.1 12.1 0 01-10.4 5.9H374.5c-4.4 0-8.4-2.4-10.6-6.2l-37.3-66.7a12 12 0 1121.1-11.8l33.9 60.5h211.3z"/><defs><linearGradient id="_Linear1" x1="0" x2="1" y1="0" y2="0" gradientTransform="scale(-229.51 229.51) rotate(-26.8 3.4 3)" gradientUnits="userSpaceOnUse"><stop offset="0" stop-color="#fe6a55"/><stop offset="1" stop-color="#f8559f"/></linearGradient><linearGradient id="_Linear2" x1="0" x2="1" y1="0" y2="0" gradientTransform="scale(-182.5332 182.5332) rotate(-32.7 5.2 3.8)" gradientUnits="userSpaceOnUse"><stop offset="0" stop-color="#fe6a55"/><stop offset="1" stop-color="#f8559f"/></linearGradient></defs></svg>