<svg clip-rule="evenodd" fill="#fff" fill-rule="evenodd" stroke-linejoin="round" stroke-miterlimit="2" viewBox="0 0 57 57" xmlns="http://www.w3.org/2000/svg"><path d="M49.064 41.543a5.545 5.545 0 010 7.84 5.547 5.547 0 01-7.84 0l-10.757-10.76c-3.356.75-7.016-.178-9.621-2.783-3.006-3.006-3.648-7.26-2.49-10.677.104-.3.552-.324.71-.164l6.224 6.223a2.16 2.16 0 003.053 0l2.572-2.573c.84-.84.839-2.21.003-3.052l-6.223-6.217c-.16-.16-.137-.609.164-.71 3.419-1.154 7.659-.512 10.664 2.494a10.377 10.377 0 012.783 9.617l10.758 10.762zm5.99-17.872l-5.07-.793a22.323 22.323 0 00-2.67-6.459l3.145-4.31c.397-.543.332-1.376-.143-1.85L46 5.946c-.474-.475-1.305-.539-1.847-.144L39.84 8.947a22.326 22.326 0 00-6.458-2.669l-.792-5.072C32.485.543 31.853 0 31.18 0h-6.1c-.671 0-1.305.542-1.41 1.206l-.792 5.072a22.307 22.307 0 00-6.46 2.67l-4.31-3.146c-.542-.395-1.374-.33-1.85.144L5.948 10.26c-.475.475-.54 1.307-.143 1.85l3.145 4.31a22.347 22.347 0 00-2.671 6.46l-5.07.792C.544 23.774 0 24.408 0 25.081v6.1c0 .671.544 1.304 1.208 1.408l5.07.792a22.359 22.359 0 002.67 6.46l-3.144 4.311c-.397.542-.332 1.374.143 1.848l4.313 4.314c.475.474 1.307.54 1.849.143l4.31-3.145a22.301 22.301 0 006.46 2.67l.792 5.072c.105.662.738 1.206 1.41 1.206h6.1c.672 0 1.304-.542 1.41-1.206l.792-5.072a22.068 22.068 0 002.32-.69l-4.856-4.856c-.886.146-1.788.241-2.716.241-9.14 0-16.547-7.408-16.547-16.547s7.408-16.547 16.547-16.547 16.547 7.408 16.547 16.547c0 1.12-.114 2.211-.325 3.267l4.768 4.77c.345-.902.636-1.832.863-2.786l5.07-.792c.666-.104 1.206-.737 1.206-1.409v-6.1c.002-.672-.54-1.306-1.205-1.409" fill-rule="nonzero"/></svg>
