<svg xmlns="http://www.w3.org/2000/svg" viewBox="0 0 266 247"><defs><linearGradient id="a" x1="40.3%" x2="0%" y1="48%" y2="43.1%"><stop offset="0%" stop-color="#FE6A55"/><stop offset="100%" stop-color="#F8559F"/></linearGradient><linearGradient id="b" x1="3.3%" x2="74.9%" y1="41.5%" y2="55.3%"><stop offset="0%" stop-color="#FE6A55"/><stop offset="100%" stop-color="#F8559F"/></linearGradient><linearGradient id="c" x1="80.4%" x2="2.4%" y1="55.3%" y2="46.1%"><stop offset="0%" stop-color="#FE6A55"/><stop offset="100%" stop-color="#F8559F"/></linearGradient></defs><g fill="none" fill-rule="evenodd"><path fill="url(#a)" d="M78.4 134l167.8 57.8a28.1 28.1 0 11-18.4 53.2L60.1 187.3A28.1 28.1 0 1178.4 134zm29.3 36.7a7.2 7.2 0 10-11.6 8.5 7.2 7.2 0 0011.6-8.5zm-8.3.7a4.3 4.3 0 115 7 4.3 4.3 0 01-5-7zm7.5-18.9c-.5-.6-1.4-.6-2-.1l-24 20.8a1.4 1.4 0 102 2.2l23.9-20.8c.6-.6.6-1.5.1-2zm-15.2-4A7.2 7.2 0 1080 157a7.2 7.2 0 0011.7-8.4zm-8.4.8a4.3 4.3 0 115 7 4.3 4.3 0 01-5-7z"/><path fill="url(#b)" d="M58.7 68.2l13.2 4.6a23 23 0 000 14.6l-8.3 5.8c-.7.6-1 1.7-.4 2.3.6.8 1.6 1 2.4.5l7.7-5.5c1 2.2 2.5 4.3 4.2 6l-7.7 5.5h-.2c-.6.6-.8 1.6-.3 2.3.6.7 1.6 1 2.4.4L80 99l1.1.8a23 23 0 0017.5 3.8 21.7 21.7 0 0016.7-15.8l111.1 38.2a28.1 28.1 0 11-18.3 53.3L40.3 121.4a28.1 28.1 0 1118.4-53.2zm29.5 10.2l24.2 8.3a2.2 2.2 0 00-.5 1v.2l-.3.6-.5 1.2a22.4 22.4 0 01-2.4 4.1 21.9 21.9 0 01-3.6 3.4l-1.8 1.1-.4.3c.2-.2-.1 0-.2 0a17.3 17.3 0 01-3 1.2l-1 .3h-.4l-.3.1a18.4 18.4 0 01-4 .4h-.4-.3a25.3 25.3 0 01-4-.8l-.5-.1h-.1s-.1 0 0 0h-.2c-1.3-.5-2.6-1-3.8-1.8l-.4-.2-.4-.2-.3-.2-.2-.2-.2-.1-.2-.2 10.8-7.6h.1c.6-.6.8-1.6.3-2.3-.5-.7-1.6-1-2.3-.4l-11.6 8-.4-.3-.2-.2-.1-.2-.2-.2a37 37 0 01-3-4.2c.2.1 0-.2 0-.2l-.3-.6 11.6-8.1v-.1c.6-.5.9-1.3.5-2zm5.3 22.2zm-9.5-3zM74.6 84l-.1-.4v-.3a24.4 24.4 0 01-.4-4.1v-.7l.2-1.1a22 22 0 01.6-3v-.4c.1 0 .1-.1.1 0v-.2l11 3.7h-.1l-.2.1L75 85.3a22.8 22.8 0 01-.3-1V84z"/><path fill="url(#c)" d="M77 69.7zm0 0zm3-3.7zm0 0zm0 0zm0 0zm0 0h.1c.1-.1 0 0 0 0l.2-.2c.5-.4 1-.9 1.7-1.3a18 18 0 0110.4-3.3h1c1 .1 1.8-.3 2-1.3.1-.8-.5-1.9-1.4-2a21.8 21.8 0 00-18.8 8.5c-1.5 2-2.6 4.2-3.3 6.5l-52.2-18A28.1 28.1 0 1138 1.7l167.8 57.7a28.1 28.1 0 11-18.3 53.3l-72.2-24.9c0-.7-.7-1.5-1.4-1.6-.7-.1-1.2.1-1.6.6l-24-8.3-.2-.4c-.6-.7-1.6-1-2.4-.4h.1L75 74v-.2c.5-1.3 1-2.5 1.7-3.6l.3-.5.1-.2.3-.4.3-.4a20 20 0 012-2.4l.4-.3z"/></g></svg>