<?xml version="1.0" encoding="UTF-8" standalone="no"?>
<!DOCTYPE svg PUBLIC "-//W3C//DTD SVG 1.1//EN" "http://www.w3.org/Graphics/SVG/1.1/DTD/svg11.dtd">
<svg width="100%" height="100%" viewBox="0 0 192 192" version="1.1" xmlns="http://www.w3.org/2000/svg" xmlns:xlink="http://www.w3.org/1999/xlink" xml:space="preserve" xmlns:serif="http://www.serif.com/" style="fill-rule:evenodd;clip-rule:evenodd;stroke-linejoin:round;stroke-miterlimit:2;">
    <g id="Plan-de-travail1" serif:id="Plan de travail1" transform="matrix(0.768,0,0,0.768,0,0)">
        <rect x="0" y="0" width="250" height="250" style="fill:none;"/>
        <g transform="matrix(1,0,0,1,5,1)">
            <g id="Artboard">
                <g id="logos--logo-color-icon" serif:id="logos/@logo-color-icon">
                    <g id="Group-2-Copy">
                        <path id="Rectangle" d="M237.611,35.665C237.611,15.981 221.63,0 201.946,0L35.665,0C15.981,0 -0,15.981 -0,35.665C-0,55.35 15.981,71.331 35.665,71.331L201.946,71.331C221.63,71.331 237.611,55.35 237.611,35.665Z" style="fill:url(#_Radial1);"/>
                        <path id="Rectangle-Copy-15" d="M166.745,123.78C166.745,104.095 150.764,88.114 131.079,88.114L35.665,88.114C15.981,88.114 0,104.095 0,123.78C0,143.464 15.981,159.445 35.665,159.445L131.079,159.445C150.764,159.445 166.745,143.464 166.745,123.78Z" style="fill:url(#_Radial2);"/>
                        <ellipse id="Oval" cx="35.433" cy="211.894" rx="35.433" ry="35.665" style="fill:url(#_Radial3);"/>
                    </g>
                    <g id="Group-2-Copy1" serif:id="Group-2-Copy">
                        <path id="Rectangle1" serif:id="Rectangle" d="M237.611,35.665C237.611,15.981 221.63,0 201.946,0L35.665,0C15.981,0 -0,15.981 -0,35.665C-0,55.35 15.981,71.331 35.665,71.331L201.946,71.331C221.63,71.331 237.611,55.35 237.611,35.665Z" style="fill:url(#_Radial4);"/>
                        <path id="Rectangle-Copy-151" serif:id="Rectangle-Copy-15" d="M166.745,123.78C166.745,104.095 150.764,88.114 131.079,88.114L35.665,88.114C15.981,88.114 0,104.095 0,123.78C0,143.464 15.981,159.445 35.665,159.445L131.079,159.445C150.764,159.445 166.745,143.464 166.745,123.78Z" style="fill:url(#_Radial5);"/>
                        <ellipse id="Oval1" serif:id="Oval" cx="35.433" cy="211.894" rx="35.433" ry="35.665" style="fill:url(#_Radial6);"/>
                    </g>
                </g>
            </g>
        </g>
    </g>
    <defs>
        <radialGradient id="_Radial1" cx="0" cy="0" r="1" gradientUnits="userSpaceOnUse" gradientTransform="matrix(657.379,0,0,657.379,31.291,71.3306)"><stop offset="0" style="stop-color:rgb(203,69,254);stop-opacity:1"/><stop offset="1" style="stop-color:rgb(65,94,255);stop-opacity:1"/><stop offset="1" style="stop-color:rgb(65,94,255);stop-opacity:1"/></radialGradient>
        <radialGradient id="_Radial2" cx="0" cy="0" r="1" gradientUnits="userSpaceOnUse" gradientTransform="matrix(406.56,0,0,406.56,25.0684,159.445)"><stop offset="0" style="stop-color:rgb(254,85,156);stop-opacity:1"/><stop offset="0.25" style="stop-color:rgb(217,87,175);stop-opacity:1"/><stop offset="1" style="stop-color:rgb(65,94,255);stop-opacity:1"/><stop offset="1" style="stop-color:rgb(65,94,255);stop-opacity:1"/></radialGradient>
        <radialGradient id="_Radial3" cx="0" cy="0" r="1" gradientUnits="userSpaceOnUse" gradientTransform="matrix(91.3135,0,0,91.3135,9.33241,247.559)"><stop offset="0" style="stop-color:rgb(254,106,85);stop-opacity:1"/><stop offset="0.56" style="stop-color:rgb(254,106,85);stop-opacity:1"/><stop offset="1" style="stop-color:rgb(65,94,255);stop-opacity:1"/><stop offset="1" style="stop-color:rgb(65,94,255);stop-opacity:1"/></radialGradient>
        <radialGradient id="_Radial4" cx="0" cy="0" r="1" gradientUnits="userSpaceOnUse" gradientTransform="matrix(206.32,0,0,206.32,31.291,71.3306)"><stop offset="0" style="stop-color:rgb(203,69,254);stop-opacity:1"/><stop offset="1" style="stop-color:rgb(65,94,255);stop-opacity:1"/><stop offset="1" style="stop-color:rgb(65,94,255);stop-opacity:1"/></radialGradient>
        <radialGradient id="_Radial5" cx="0" cy="0" r="1" gradientUnits="userSpaceOnUse" gradientTransform="matrix(129.547,0,0,129.547,25.0684,159.445)"><stop offset="0" style="stop-color:rgb(254,85,156);stop-opacity:1"/><stop offset="0.35" style="stop-color:rgb(217,87,175);stop-opacity:1"/><stop offset="1" style="stop-color:rgb(65,94,255);stop-opacity:1"/></radialGradient>
        <radialGradient id="_Radial6" cx="0" cy="0" r="1" gradientUnits="userSpaceOnUse" gradientTransform="matrix(111.088,0,0,111.088,-12.0585,219.483)"><stop offset="0" style="stop-color:rgb(254,106,85);stop-opacity:1"/><stop offset="0.56" style="stop-color:rgb(254,106,85);stop-opacity:1"/><stop offset="1" style="stop-color:rgb(65,94,255);stop-opacity:1"/></radialGradient>
    </defs>
</svg>
